<?xml version="1.0" encoding="iso-8859-1"?>
<!-- Uploaded to: SVG Repo, www.svgrepo.com, Generator: SVG Repo Mixer Tools -->
<svg fill="#000000" height="800px" width="800px" version="1.1" id="Layer_1" xmlns="http://www.w3.org/2000/svg" xmlns:xlink="http://www.w3.org/1999/xlink" 
	 viewBox="0 0 512 512" xml:space="preserve">
<g>
	<g>
		<path d="M495.519,96.137c-9.102,0-16.481,7.379-16.481,16.481v168.103h-87.897c-9.102,0-16.481,7.379-16.481,16.481v96.687
			c0,9.102,7.379,16.481,16.481,16.481c9.102,0,16.481-7.379,16.481-16.481v-80.206h71.416v80.206
			c0,9.102,7.379,16.481,16.481,16.481c9.102,0,16.481-7.379,16.481-16.481v-281.27C512,103.516,504.621,96.137,495.519,96.137z"/>
	</g>
</g>
<g>
	<g>
		<path d="M120.858,280.721H32.961V112.618c0-9.102-7.379-16.481-16.481-16.481C7.379,96.137,0,103.516,0,112.618v281.27
			c0,9.102,7.379,16.481,16.481,16.481c9.102,0,16.481-7.379,16.481-16.481v-80.206h71.416v80.206
			c0,9.102,7.379,16.481,16.481,16.481c9.102,0,16.481-7.379,16.481-16.481v-96.687C137.339,288.1,129.96,280.721,120.858,280.721z"
			/>
	</g>
</g>
<g>
	<g>
		<path d="M425.202,166.455H86.798c-9.102,0-16.481,6.832-16.481,15.934v21.149c0,24.385,19.839,44.222,44.224,44.222h94.214
			v136.523c-5.819,2.544-9.888,8.344-9.888,15.1c0,9.102,7.379,16.481,16.481,16.481h81.305c9.102,0,16.481-7.379,16.481-16.481
			c0-7.172-4.59-13.258-10.987-15.523v-136.1h95.312c24.385,0,44.224-19.837,44.224-44.222v-21.149
			C441.682,173.287,434.303,166.455,425.202,166.455z M269.185,382.901h-27.468V247.76h27.468V382.901z M408.721,203.538
			c0,6.21-5.053,11.261-11.263,11.261H114.542c-6.21,0-11.263-5.051-11.263-11.261v-4.121h305.442V203.538z"/>
	</g>
</g>
</svg>